<svg id="Laag_1" data-name="Laag 1" xmlns="http://www.w3.org/2000/svg" viewBox="0 0 358.69 222.62"><defs><style>.cls-1{fill:#fff;}.cls-2{fill:#1e1e1c;}.cls-3{font-size:90px;fill:#010101;font-family:AmericanTypewriter-Semibold, American Typewriter;font-weight:700;}.cls-4{font-size:45px;}</style></defs><title>icon-carbon</title><path class="cls-1" d="M58.22,116.81c.28-4.59,2.45-32.24,26-51,30.54-24.33,68.16-10.7,70-10,19.4-39.87,65-59.1,105-46,43.35,14.2,69,62.8,55,109,25.35,3,44.94,23.08,47,47,2.3,26.63-17.66,52-46,56h-260c-31.73-7.08-50.74-37.19-45-64C14.73,136.74,34.07,119.83,58.22,116.81Z" transform="translate(-5.05 -3.57)"/><path class="cls-2" d="M358,147.25a51.67,51.67,0,0,0-12.9-16.16,55.83,55.83,0,0,0-8.52-5.79,41.11,41.11,0,0,0-7.61-2.92q-6-1.88-12.13-3.47a102.57,102.57,0,0,0,2.93-14.71,92,92,0,0,0,.38-17.67A91.08,91.08,0,0,0,311,53.3c-9.83-19.62-25.9-35.52-46.39-43.72a86.61,86.61,0,0,0-65,.66,88,88,0,0,0-15.4,8.36,79.62,79.62,0,0,0-13.66,11.33c-1.65,1.76-3.43,3.76-5,5.62a36.1,36.1,0,0,0-6,9.2C158.1,47.9,156.41,51,154.61,54c-1.46-.57-3-1-4.49-1.46a86.57,86.57,0,0,0-14.38-2.89c-14.1-1.63-29.22.08-41.94,6.68A70.17,70.17,0,0,0,63,87.69a75.18,75.18,0,0,0-5.84,16.16,32.11,32.11,0,0,0-.93,9.1,2.94,2.94,0,0,0,.8,1.43,73.72,73.72,0,0,0-11.68,2.55,59.72,59.72,0,0,0-12.76,5.59A60.42,60.42,0,0,0,14.7,138.7,49.62,49.62,0,0,0,5.27,163.4a55.4,55.4,0,0,0,3.42,24.31,59.58,59.58,0,0,0,16.07,23.22A61.12,61.12,0,0,0,37,219.39c4.45,2.36,9.54,4.7,14.51,5.59l.5,0,18.58,0,46.48.06q46.43.08,92.85.28,42,.21,84,.65l19,.17a44.19,44.19,0,0,0,8.26-1.6,54.15,54.15,0,0,0,12.67-4.9c14.7-8.19,25.67-22.14,28.89-38.8A51.85,51.85,0,0,0,358,147.25Zm-2.25,26.23a45.9,45.9,0,0,1-1.44,8.81,47.92,47.92,0,0,1-7.6,15.9,49.83,49.83,0,0,1-32.87,19.88h-18L277.47,218q-18.38,0-36.76-.06L157,217.9l-74.14,0a168,168,0,0,1-21.08-.75,25.89,25.89,0,0,1-14.36-1.67,50,50,0,0,1-9.58-4.58c-12-7.53-21.2-19.76-24-33.82A43.25,43.25,0,0,1,22,142.34,51.59,51.59,0,0,1,37.55,129a54.81,54.81,0,0,1,8.69-4,63.13,63.13,0,0,1,12.22-2.83c.78-.12.78-3.73.81-4,0,0,.08-.62.13-1.4.84.86,2.28,2.31,2.28,2.28,1.65-8,3.1-16.12,6.23-23.69,5.35-12.92,15-24.45,27.51-31A67.09,67.09,0,0,1,130.57,57c6.77.37,14.13,1.32,20.43,4,.83.36,1.6-.63,2.06-1.13a17,17,0,0,0,3.13-4l.54-1.19c8.13-9.09,15.79-18.59,25.59-26A87.59,87.59,0,0,1,205.84,16a78.19,78.19,0,0,1,90.63,28.16A84.5,84.5,0,0,1,309,117.85c-.3,1.17.12,1.57,1.13,2.33l1.58,1.05a12.29,12.29,0,0,0,2.91,1.42l4.34.1a81.94,81.94,0,0,1,14.85,8.3,66.57,66.57,0,0,1,7.86,6.56,39.53,39.53,0,0,1,4.79,5.58,23.52,23.52,0,0,1,5.35,12.69,22.64,22.64,0,0,1,4,13.05A21.77,21.77,0,0,1,355.71,173.49Z" transform="translate(-5.05 -3.57)"/><text class="cls-3" transform="translate(113.94 164.05)">CO<tspan class="cls-4" x="116.28" y="0">2</tspan></text></svg>