<svg id="Laag_1" data-name="Laag 1" xmlns="http://www.w3.org/2000/svg" viewBox="0 0 26 29.44"><defs><style>.cls-1{fill:#2e2e2e;}</style></defs><title>icon-euro</title><path class="cls-1" d="M30.27,31.64l-4.49.81-3.2,0L19.71,32l-2.29-.79-1.48-.84L12.24,26a14,14,0,0,1-.73-2.23c-.31-1.19-.59-2.37-.87-3.57l-.15-1.43.61-5.28.52-1.37.87-1.44,1.45-1.58a10.62,10.62,0,0,1,6.13-2,15.28,15.28,0,0,1,5.91,1,3.27,3.27,0,0,0,1.26-.4q1.16-.51,2.29-1.08s1.75-.79,1-1c-4-1.17-7.84-2-11.92-.75a14.3,14.3,0,0,0-5.22,2.77c-3.58,3.17-5.2,8.87-4.9,13.55A12.54,12.54,0,0,0,12,29.48c3.88,3.78,9.31,4.33,14.44,4.14a17.84,17.84,0,0,0,2.07-.57,17.86,17.86,0,0,0,2-.75C30.93,32,31.11,31.49,30.27,31.64Z" transform="translate(-4.86 -4.22)"/><path class="cls-1" d="M25.26,15.6l-18.57.34c-.42,0-1.18,1-1.42,1.3,0,0-.68.67-.27.66l18.61-.3C24.13,17.58,25.49,15.59,25.26,15.6Z" transform="translate(-4.86 -4.22)"/><path class="cls-1" d="M23.82,21.53l-17,.33c-.42,0-1.18,1-1.42,1.3,0,0-.68.67-.27.66l17-.31C22.69,23.51,24,21.53,23.82,21.53Z" transform="translate(-4.86 -4.22)"/></svg>