<svg id="Bold" xmlns="http://www.w3.org/2000/svg" viewBox="0 0 415.98 511.99"><defs><style>.cls-1{fill:#fff;}</style></defs><title>pinterest</title><path class="cls-1" d="M263,0C122.6,0,48,89.94,48,188c0,45.46,25.41,102.19,66.09,120.17,11.61,5.23,10.07-1.15,20.05-39.34a9.06,9.06,0,0,0-2.18-8.9C73.81,192.66,120.62,54.38,254.66,54.38c194,0,157.74,268.42,33.75,268.42-32,0-55.77-25.09-48.23-56.13,9.13-37,27-76.71,27-103.36,0-67.16-100.05-57.19-100.05,31.79,0,27.5,9.73,46.06,9.73,46.06s-32.19,130-38.17,154.35c-10.11,41.13,1.37,107.71,2.37,113.45.62,3.16,4.16,4.16,6.14,1.56,3.18-4.16,42.09-59.67,53-99.8,4-14.61,20.25-73.92,20.25-73.92,10.73,19.37,41.66,35.58,74.62,35.58,98,0,168.92-86.19,168.92-193.13C463.64,76.71,375.89,0,263,0Z" transform="translate(-48)"/></svg>