<svg id="Laag_1" data-name="Laag 1" xmlns="http://www.w3.org/2000/svg" viewBox="0 0 27.9 36.3"><defs><style>.cls-1{fill:#2e2e2e;}</style></defs><title>icon-location</title><path class="cls-1" d="M32.53,14.71a12,12,0,0,0-1.89-5.29.69.69,0,0,0-.37-.23c.26-.19.45-.37.41-.42a15.74,15.74,0,0,0-7.28-5.72,13.21,13.21,0,0,0-8.2-.36A13.87,13.87,0,0,0,4.81,14.19C4.26,18.9,6.17,23.56,8.38,27.6a38.91,38.91,0,0,0,2.31,3.73,29.22,29.22,0,0,0,7.92,7.16l.14,0a27.53,27.53,0,0,0,12-13.71,21.9,21.9,0,0,0,1.8-7.25A24.44,24.44,0,0,0,32.53,14.71ZM28.67,24.85a28.16,28.16,0,0,1-2.55,4.54l-4.8,5.16-4.2.82-1.58-1.5L14,32.17a29.42,29.42,0,0,1-2.06-2.67,35.32,35.32,0,0,1-3.8-6.8A16,16,0,0,1,6.9,13.82a11.37,11.37,0,0,1,4.68-7.18,11.94,11.94,0,0,1,8.71-2.27C24,4.88,26.68,7,28.93,9.83h0l1,2,.41,7.87A23.13,23.13,0,0,1,28.67,24.85Z" transform="translate(-4.71 -2.22)"/><path class="cls-1" d="M26.8,16.44a10.19,10.19,0,0,0-2.3-5.92A8,8,0,0,0,18.71,8c-5.08-.26-8.77,4.87-8.11,9.57a8.14,8.14,0,0,0,9,7.14,7.37,7.37,0,0,0,5.06-2.85,8.82,8.82,0,0,0,1.74-4.7.75.75,0,0,0-.2-.46C26.55,16.62,26.81,16.54,26.8,16.44Zm-3.7,3.5A4,4,0,0,1,20,22.61a6.12,6.12,0,0,1-4.16-.5A6.41,6.41,0,0,1,19,10a6,6,0,0,1,4.18,2,7.79,7.79,0,0,1,1.64,4.59s0,0,.07.06A4.35,4.35,0,0,1,23.1,19.94Z" transform="translate(-4.71 -2.22)"/></svg>