<svg id="Laag_1" data-name="Laag 1" xmlns="http://www.w3.org/2000/svg" viewBox="0 0 78 58"><defs><style>.cls-1,.cls-5{fill:#010101;}.cls-2,.cls-3{fill:none;stroke:#fff;stroke-miterlimit:10;}.cls-2{stroke-width:0.75px;}.cls-3{stroke-width:0.5px;}.cls-4{fill:#fff;}.cls-5{font-size:15px;font-family:AmericanTypewriter-Condensed, American Typewriter;}</style></defs><title>Logo-D&amp;amp;K</title><path class="cls-1" d="M79,42.85l-16,16H17l-16-16V16.51L16.43.85h46.2L79,16.85Z" transform="translate(-0.99 -0.85)"/><path class="cls-2" d="M5,18.85l14-14H61l14,14v22l-13,13H18l-13-13Z" transform="translate(-0.99 -0.85)"/><path class="cls-3" d="M7.34,19.7,20.27,6.85H59.06L72,19.7v20.2L60,51.85H19.35l-12-11.94Z" transform="translate(-0.99 -0.85)"/><path class="cls-4" d="M70,38.54,57.47,49.85h-36L9,38.54V19.92L21.07,8.85H57.19L70,20.16Z" transform="translate(-0.99 -0.85)"/><text class="cls-5" transform="translate(15.6 27.79)">DILLE&amp;<tspan x="-4.81" y="12">KAMILLE</tspan></text></svg>