<svg id="Laag_1" data-name="Laag 1" xmlns="http://www.w3.org/2000/svg" viewBox="0 0 149.88 46.31"><defs><style>.cls-1{font-size:15px;font-family:AmericanTypewriter-Condensed, American Typewriter;}.cls-1,.cls-3{fill:#768985;}.cls-2{letter-spacing:0.03em;}</style></defs><title>logo-sustainable-website</title><text class="cls-1" transform="translate(49.21 23.87)"> <tspan class="cls-2" x="3.75" y="0" xml:space="preserve">  Sustainable</tspan><tspan class="cls-2"><tspan x="0" y="17">website</tspan></tspan></text><path class="cls-3" d="M55,7.34a80.36,80.36,0,0,0-13.1,6.77,34.07,34.07,0,0,0-8.15,6.95,25.79,25.79,0,0,0-3.56,6c-3,7.23-1.23-.31-.82,18.27,0,.35,1,.66,1,.94C30,30.23,28.19,35,30.91,28.22a24,24,0,0,1,3.38-5.94,32.73,32.73,0,0,1,7.81-6.83A80.27,80.27,0,0,1,54.8,8.69C55.06,8.58,54.83,7.4,55,7.34Z" transform="translate(-1.45 -1.14)"/><path class="cls-3" d="M64.73,3.43C57.92,1.3,50.59.24,43.58,2.08,38.9,3.31,32.74,6.29,31.66,11.63a13.51,13.51,0,0,0,3.22,11.62,12.75,12.75,0,0,0,9.89,4,14,14,0,0,0,5.69-2,.36.36,0,0,0,.12-.16c.09.15.17.24.22.21a31.06,31.06,0,0,0,6.28-5.75,36.49,36.49,0,0,0,4.41-7,44.22,44.22,0,0,0,3.25-9.12Zm-2,3.12c-.81,1.83-1.58,3.69-2.49,5.47a49,49,0,0,1-3,5.22A27.9,27.9,0,0,1,50.36,24a.19.19,0,0,0-.06.1,11.3,11.3,0,0,1-2.45,1.18,5.25,5.25,0,0,1-3.2.42A7.12,7.12,0,0,1,40,25.15L37.8,24a11.35,11.35,0,0,1-4.31-5.59,11,11,0,0,1-.29-7.13,9,9,0,0,1,3.45-4.51c6.74-5.08,16-5,23.92-3.21L62.36,4A1.73,1.73,0,0,1,62.74,6.55Z" transform="translate(-1.45 -1.14)"/><path class="cls-3" d="M24.39,15.23a9.44,9.44,0,0,0-4-2.49.57.57,0,0,0-.35.07c.1-.22.17-.4.18-.4a24.33,24.33,0,0,0-10.95-.3A26.58,26.58,0,0,0,1.48,15l0,0c2.26,5.4,5.49,10.44,10.74,13.34,3,1.66,6.69,2.78,9.85.87a9.93,9.93,0,0,0,4.48-7.5A9.09,9.09,0,0,0,24.39,15.23Zm-.2,9.69c-1.58,2.9-4.2,4.38-7.43,3.78a15.34,15.34,0,0,1-7.52-4.07,25.08,25.08,0,0,1-3.58-4.31A30.58,30.58,0,0,1,3.45,16.4q0-2.2,2.09-2,2-.54,4.05-1a23.12,23.12,0,0,1,9.94.15s0,0,.07,0c2.7,1.19,4.77,2.81,5.4,5.91A8,8,0,0,1,24.19,24.92Z" transform="translate(-1.45 -1.14)"/><path class="cls-3" d="M30,30.74a29.64,29.64,0,0,0-5.08-6.06,33.45,33.45,0,0,0-9.77-5.78c-.25-.1-1.32.57-1.12.65A29.87,29.87,0,0,1,28.7,31.06C28.83,31.24,30.17,31,30,30.74Z" transform="translate(-1.45 -1.14)"/><path class="cls-3" d="M16.13,22.25c-.32.16-.16,1.22-.34,1.32a12.48,12.48,0,0,1,3.7-1.26c.29-.05.38-1.25.5-1.26A11.62,11.62,0,0,0,16.13,22.25Z" transform="translate(-1.45 -1.14)"/><path class="cls-3" d="M19.64,21.52l-.7-2.87c0-.29-.93-1.32-1-.89a6.65,6.65,0,0,0,.57,3.43C18.68,21.47,19.94,22.1,19.64,21.52Z" transform="translate(-1.45 -1.14)"/><path class="cls-3" d="M18,24.15c-.32.16-.16,1.22-.34,1.32a15.61,15.61,0,0,1,4.65-1.58c.3-.05.38-1.25.5-1.26A14.74,14.74,0,0,0,18,24.15Z" transform="translate(-1.45 -1.14)"/><path class="cls-3" d="M22.41,23a6,6,0,0,1-.86-3.68c0-.3-.91-1.32-1-.89a7.62,7.62,0,0,0,.74,4.22C21.45,23,22.7,23.61,22.41,23Z" transform="translate(-1.45 -1.14)"/><path class="cls-3" d="M46.06,7.17a19.36,19.36,0,0,1-1.79,5.33c-.13.25.67,1.39.9.94A17,17,0,0,0,47,8C47.09,7.73,46.15,6.72,46.06,7.17Z" transform="translate(-1.45 -1.14)"/><path class="cls-3" d="M46.24,13c-.33-.09-1.15.44-1.21.43a7.3,7.3,0,0,1,4.09,1.77c.29.25,1.18-.19,1.36,0A10.13,10.13,0,0,0,46.24,13Z" transform="translate(-1.45 -1.14)"/><path class="cls-3" d="M40.84,9.46a21.44,21.44,0,0,1-2.24,6.67c-.13.25.65,1.4.89,1a19.92,19.92,0,0,0,2.32-6.76C41.86,10,40.91,9,40.84,9.46Z" transform="translate(-1.45 -1.14)"/><path class="cls-3" d="M39.91,16.17c-.33-.08-1.14.52-1.18.51a8.7,8.7,0,0,1,5.12,2.22c.29.25,1.18-.19,1.36,0A11.93,11.93,0,0,0,39.91,16.17Z" transform="translate(-1.45 -1.14)"/></svg>