<svg id="Laag_1" data-name="Laag 1" xmlns="http://www.w3.org/2000/svg" viewBox="0 0 26.89 27.96"><defs><style>.cls-1{fill:#fff;}</style></defs><title>icon-filter</title><path class="cls-1" d="M21.54,1.75c0-.64-3-2.36-3-1.54v26c0,.64,3,2.34,3,1.51Q21.54,14.74,21.54,1.75Z" transform="translate(0.02 0.01)"/><path class="cls-1" d="M7.53,1.75c0-.66-3-2.35-3-1.53v26c0,.64,3,2.34,3,1.51Q7.53,14.74,7.53,1.75Z" transform="translate(0.02 0.01)"/><path class="cls-1" d="M12.83,7.5h-11c-.42,0-1.2,1.55-1.44,2,0,0-.7,1-.28,1h11C11.67,10.53,13.11,7.5,12.83,7.5Z" transform="translate(0.02 0.01)"/><path class="cls-1" d="M26.83,16.5h-11c-.42,0-1.2,1.55-1.44,2,0,0-.7,1-.28,1h11C25.67,19.53,27.11,16.5,26.83,16.5Z" transform="translate(0.02 0.01)"/></svg>