<svg id="Laag_1" data-name="Laag 1" xmlns="http://www.w3.org/2000/svg" viewBox="0 0 99.03 109"><defs><style>.cls-1{fill:none;stroke:#2d2d2d;stroke-miterlimit:10;stroke-width:4px;}</style></defs><title>profile-icon</title><path class="cls-1" d="M96.82,35.12c0,.61-.14,14.25-11.5,22.26A26.93,26.93,0,0,1,51.5,55a27.63,27.63,0,0,1-8.37-19.88A27.29,27.29,0,0,1,46.5,22C51,14,60,7.9,70,8a27.45,27.45,0,0,1,18.55,7.88A27.77,27.77,0,0,1,96.82,35.12Z" transform="translate(-20.71 -6)"/><path class="cls-1" d="M116.5,113h-93a142.24,142.24,0,0,1,5.28-13.32c.56-1.22,2.4-5.24,4.51-9A93.7,93.7,0,0,1,48.16,71c5.45.54,11.34.92,17.62,1a210.06,210.06,0,0,0,24.14-1,97.83,97.83,0,0,1,14.35,18.77c1.31,2.25,2.75,5,4.84,8.89C112.26,104.6,114.78,109.55,116.5,113Z" transform="translate(-20.71 -6)"/></svg>