<svg id="Laag_1" data-name="Laag 1" xmlns="http://www.w3.org/2000/svg" viewBox="0 0 142.62 228.46"><defs><style>.cls-1{fill:#fff;}.cls-2{fill:#1e1e1c;}</style></defs><title>icon-tree</title><path class="cls-1" d="M69,182.77l-.61,54.7,19.33.94.31-55.63" transform="translate(-6.61 -12.46)"/><path class="cls-2" d="M88.7,180.84a10.43,10.43,0,0,1-1.25,2.41,9.52,9.52,0,0,0-1.18,2.45,117.12,117.12,0,0,0-1.62,24.66q.07,13.67-.17,27.34l-15-1.14q.29-25.64.57-51.29c0-1.1-1.66-2.41-2.39-3-.23-.19-1.74-1.3-1.75-.13q-.33,27.35-.63,54.71c0,.76,1.07,1.72,1.49,2.14s1.29,1.5,2.13,1.52l20,.43a.37.37,0,0,0,.31-.5q.18-14.12.55-28.23A194.32,194.32,0,0,0,88.7,180.84Z" transform="translate(-6.61 -12.46)"/><path class="cls-1" d="M36.63,71,76.37,15.4,117,68.7l-20.57.47,36,59.37-23.38-.47L147,182.77H9.51l37.4-56.57-23.84.47L56.73,72Z" transform="translate(-6.61 -12.46)"/><path class="cls-2" d="M149.1,183.46q-9.42-13.66-18.93-27.26-9.2-11.87-17.88-24.12,10.35-.51,20.63-1.83c.74-.08,2.42-.23,1.74-1.36Q125.76,114,116.92,99.12A250.75,250.75,0,0,0,99.08,71.89L105,70.55l8.7,1.59c.67.12,6.38-3.62,5.8-4.41Q109.2,53.8,98.87,39.89a168.46,168.46,0,0,0-22.72-27.3l-.2-.13L56.09,40.27Q46.17,53.66,37.15,67.66a4.06,4.06,0,0,0,.06,2.39l-1.82,1a8.69,8.69,0,0,0-2.05,1.21c-.11.11-.64.4-.14.36l4.45-.37c.11.68.23,1.36.36,2a1.07,1.07,0,0,0,.31.74c.81-1,1.6-2,2.41-3l2.94-.24,8.2,1.55Q44.2,85.3,36.5,97.26a128.06,128.06,0,0,0-16.95,31.48q-.21.37.19.24l20.64-.18q-8.72,12.62-17,25.51-7,13-14.76,25.51c-.37.62-2.82,6.49-1.71,6.5Q42,186.63,77,187q15.35.18,30.71.17a272.18,272.18,0,0,0,40.7-2.53A.78.78,0,0,0,149.1,183.46ZM106,179.94q-14.28-.29-28.57-.36c-21.68-.17-43.36-.21-65-.26q8.76-12.24,18.4-23.81,9.6-13.24,18.77-26.78c.13-.18-5.09-4.8-5.88-4.61l-6,1.43-12.05-1.18a101.77,101.77,0,0,0,17.13-22.91q8.5-13.3,16.88-26.68c.21-.34-2.39-2.79-2.44-2.84-.2-.21-2.14-2.69-2.71-2.58l-6.59,1.27-5.21-1q8.6-11,16.46-22.51L78.83,19.5A134.83,134.83,0,0,0,94.6,46q7.93,11.37,16.2,22.49l-2.26.25L93.52,67q-.45-.09-.3.34l7.56,16.5A71.09,71.09,0,0,0,105.21,92c6.6,12.1,13.83,23.84,21,35.64q-9.58-1.19-19.16-2.41c-1-.13,1.66,6.27,1.79,6.48q7.35,11.93,14.26,24.11Q131.74,169,140.67,182A312.93,312.93,0,0,0,106,179.94Z" transform="translate(-6.61 -12.46)"/></svg>