<svg id="Laag_1" data-name="Laag 1" xmlns="http://www.w3.org/2000/svg" viewBox="0 0 28.14 32.96"><defs><style>.cls-1{fill:none;stroke:#2e2e2e;stroke-miterlimit:10;stroke-width:2px;}.cls-2{fill:#2e2e2e;}</style></defs><title>icon-return</title><path class="cls-1" d="M5.59,22.31C6.74,29.76,12.63,35,18.81,35c4.81,0,9-3.18,11.11-6.88a13.06,13.06,0,0,0,1.23-10.4A13.09,13.09,0,0,0,23.75,10c-6.34-2.62-12.1.86-12.69,1.23" transform="translate(-4.6 -3.04)"/><path class="cls-2" d="M16.2,12.49l-4.52-1.41,3.12-5.55C15.1,5,14.1,2.46,13.7,3.16L9.48,10.63c-.24.42.24,2.34.74,2.47l7,1.76C17.84,15,16.72,12.66,16.2,12.49Z" transform="translate(-4.6 -3.04)"/></svg>