<svg id="Laag_1" data-name="Laag 1" xmlns="http://www.w3.org/2000/svg" viewBox="0 0 30.87 32.84"><defs><style>.cls-1{fill:none;stroke:#1e1e1c;stroke-miterlimit:10;}</style></defs><title>icon-search-bar</title><path class="cls-1" d="M31.11,13.26c-.1,6.25-5.43,10.66-10.5,11.5-.65.11-6.16.93-10-3a11.6,11.6,0,0,1-3-8.5,12.58,12.58,0,0,1,2-6.5c.18-.27,3.8-5.54,9.75-5.5S31.22,6.58,31.11,13.26Z" transform="translate(-0.74 -0.76)"/><path class="cls-1" d="M11.11,22.26l-10,11" transform="translate(-0.74 -0.76)"/><path class="cls-1" d="M24.11,8.26a8.62,8.62,0,0,1,2.5,5.5,8.76,8.76,0,0,1-2.5,6.5" transform="translate(-0.74 -0.76)"/></svg>