<svg id="Laag_1" data-name="Laag 1" xmlns="http://www.w3.org/2000/svg" viewBox="0 0 25.94 24"><defs><style>.cls-1{fill:none;stroke:#fff;stroke-miterlimit:10;stroke-width:2px;}</style></defs><title>icon-favorite</title><path class="cls-1" d="M14,6.29A9.57,9.57,0,0,0,10.71,3,6.1,6.1,0,0,0,7.45,1.94,5.56,5.56,0,0,0,4.2,3,5,5,0,0,0,2,6.29c-.08.76.08,1.55,1.09,3.26A27.36,27.36,0,0,0,7.45,15c3.16,3.25,3.18,2.83,4.34,4.34,2,2.66,2.23,4.32,3.26,4.34s1.38-1.58,3.26-4.34c2.43-3.59,3.43-3.27,5.43-6.52,1.19-1.93,2.38-3.92,2.17-6.52,0-.61-.27-3.37-2.17-4.34-.25-.13-1.17-.55-3.26,0A13.06,13.06,0,0,0,14,6.29Z" transform="translate(-1.01 -0.67)"/></svg>