<svg id="Laag_1" data-name="Laag 1" xmlns="http://www.w3.org/2000/svg" viewBox="0 0 287.15 88.71"><defs><style>.cls-1{font-size:28.73px;font-family:AmericanTypewriter-Condensed, American Typewriter;letter-spacing:0.04em;}.cls-1,.cls-2{fill:#fff;}</style></defs><title>logo-sustainable-website-white</title><text class="cls-1" transform="translate(94.33 45.72)"><tspan xml:space="preserve">   Sustainable</tspan><tspan x="0" y="32.56">website</tspan></text><path class="cls-2" d="M110.25,19.61A156.56,156.56,0,0,0,88.79,30.31c-6.16,3.74-12.52,7.78-17.35,13.22a50.58,50.58,0,0,0-8.86,13.91,43.44,43.44,0,0,1-1.94,4q-2.13,3.58-.14,8.16.25,11.4.5,22.8c0,.66,2,1.26,2,1.88l-.33-15.2-.33-15.2c.43-1.11,1-2.1,1.43-3.22a43.83,43.83,0,0,1,8.7-14.65A74,74,0,0,1,87,34.25a148.35,148.35,0,0,1,22.76-12c.23-.1.33-1.17.35-1.32C110.06,21,110.29,19.59,110.25,19.61Z" transform="translate(-7.63 -7.72)"/><path class="cls-2" d="M129,12.22C115.4,7.86,100.41,5.8,86.49,10.07c-9,2.77-19.87,8.89-21.22,19.32a26.43,26.43,0,0,0,1.56,12.46c.39,1.08.84,2.14,1.3,3.19a21.36,21.36,0,0,0,5,6.46,23.91,23.91,0,0,0,16.44,6.37c4.4-.08,8.11-1.72,11.93-3.83a.41.41,0,0,0,.12-.12c.14.19.3.28.48.16A45.49,45.49,0,0,0,109.84,48a58.64,58.64,0,0,0,7.53-9.27A78.42,78.42,0,0,0,129,12.34Zm-3.54,4.43c-1.32,2.87-2.48,5.8-3.75,8.69-4.64,10.5-10.37,19-20.44,26.28a.25.25,0,0,0-.07.13,32.33,32.33,0,0,1-7.3,3.14c-4.43,1.17-8.9.3-13-1.42a22.35,22.35,0,0,1-10.57-9.73C66.91,37.21,66.2,28.42,71,22.4c3.83-4.78,9.6-7.74,15.3-9.62a58,58,0,0,1,24.75-2.1,88.55,88.55,0,0,1,10,1.69q1.95.42,3.87,1Q126.83,15,125.5,16.65Z" transform="translate(-7.63 -7.72)"/><path class="cls-2" d="M55.43,42.77a17.16,17.16,0,0,0-3.76-8C49.53,32.36,47,31.12,44,29.94a.86.86,0,0,0-.52.08,2.73,2.73,0,0,1,.36-.56,43.67,43.67,0,0,0-11.39-1.7A52,52,0,0,0,21.31,29.1,49.89,49.89,0,0,0,11.79,32L9.43,33.15q-3,.61-.94,3A58.12,58.12,0,0,0,18.65,52.26c5,5.49,11.74,10.18,19.29,11.07a14.12,14.12,0,0,0,10.42-2.65A20.37,20.37,0,0,0,54.73,52,17.34,17.34,0,0,0,55.43,42.77Zm-4,10.09A14.44,14.44,0,0,1,44.08,60a13.27,13.27,0,0,1-8.75.14A33.92,33.92,0,0,1,19.72,49.59a52.25,52.25,0,0,1-5.17-7.17q-1.22-1.92-2.24-3.94l-1.1-2.23Q11,34,12.85,34.06A28.36,28.36,0,0,0,16,33.3c2.31-.64,4.61-1.31,7-1.84a44.18,44.18,0,0,1,8.5-1.18,40,40,0,0,1,10.71,1.3.34.34,0,0,0,.26-.09A11.61,11.61,0,0,1,46.84,34a9.27,9.27,0,0,1,3.89,3.74,18.26,18.26,0,0,1,2,5A15.07,15.07,0,0,1,51.39,52.86Z" transform="translate(-7.63 -7.72)"/><path class="cls-2" d="M62.36,64.51a61.08,61.08,0,0,0-10.21-12A58.85,58.85,0,0,0,33.9,41.74c-.5-.19-2.63,1.14-2.24,1.3a65.11,65.11,0,0,1,12.82,6.41A58.51,58.51,0,0,1,59.82,65C60.08,65.39,62.77,65.1,62.36,64.51Z" transform="translate(-7.63 -7.72)"/><path class="cls-2" d="M35.77,48.11c-.26.13-.39,1.1-.44,1.29,0,0-.27,1.35-.25,1.34a23.21,23.21,0,0,1,7-2.43c.59-.1.86-2.46,1.1-2.48A20.73,20.73,0,0,0,35.77,48.11Z" transform="translate(-7.63 -7.72)"/><path class="cls-2" d="M42.6,46.87a9.64,9.64,0,0,1-1.38-5.54c0-.61-1.83-2.61-1.91-1.78a12.06,12.06,0,0,0,1.14,6.62,3.68,3.68,0,0,0,1.75,1.24C42.55,47.38,42.85,47.3,42.6,46.87Z" transform="translate(-7.63 -7.72)"/><path class="cls-2" d="M39.4,51.74c-.27.15-.38,1.08-.44,1.29,0,0-.26,1.35-.25,1.34a26.28,26.28,0,0,1,8.84-3c.6-.1.87-2.45,1.12-2.48A24.48,24.48,0,0,0,39.4,51.74Z" transform="translate(-7.63 -7.72)"/><path class="cls-2" d="M47.89,49.76a12.4,12.4,0,0,1-1.68-7.07c0-.56-.63-1.3-1-1.65-.1-.1-.84-.75-.9-.13A14.91,14.91,0,0,0,45.76,49,3.68,3.68,0,0,0,47.5,50.3C47.84,50.27,48.13,50.19,47.89,49.76Z" transform="translate(-7.63 -7.72)"/><path class="cls-2" d="M93.09,19.26a30.07,30.07,0,0,1-3.35,10.14c-.26.49,1.17,2.86,1.65,2A28.5,28.5,0,0,0,95,21C95.12,20.39,93.21,18.42,93.09,19.26Z" transform="translate(-7.63 -7.72)"/><path class="cls-2" d="M92.68,29.26a4.38,4.38,0,0,0-1.86.47c.18-.06-1,.35-.57.39a13.33,13.33,0,0,1,7.87,3.4c.26.22,1.09.08,1.36.07,0,0,1.37-.14,1.36-.15A18.49,18.49,0,0,0,92.68,29.26Z" transform="translate(-7.63 -7.72)"/><path class="cls-2" d="M83.08,23.66a36.75,36.75,0,0,1-4.24,12.73c-.27.48,1.21,2.84,1.69,2A36.06,36.06,0,0,0,85,25.4C85.11,24.78,83.21,22.81,83.08,23.66Z" transform="translate(-7.63 -7.72)"/><path class="cls-2" d="M81.36,36.52c-.47-.11-1.42.42-1.83.6.15-.07-1,.41-.53.45a16.21,16.21,0,0,1,9.82,4.25c.26.22,1.09.08,1.36.07,0,0,1.37-.14,1.36-.15A22.47,22.47,0,0,0,81.36,36.52Z" transform="translate(-7.63 -7.72)"/></svg>